{"title":"Once Upon A Time In Anatolia [2011] 720p BRRip H264 AC3 - CODY","uid":7103515,"size":2547967396,"categoryP":"video","categoryS":"hd___movies","magnet":"?xt=urn:btih:ac2796166b3a596dd917a8f369d2377c3b1f11ec&amp;dn=Once+Upon+A+Time+In+Anatolia+%5B2011%5D+720p+BRRip+H264+AC3+-+CODY&amp;tr=udp%3A%2F%2Ftracker.openbittorrent.com%3A80&amp;tr=udp%3A%2F%2Fopen.demonii.com%3A1337&amp;tr=udp%3A%2F%2Ftracker.coppersurfer.tk%3A6969&amp;tr=udp%3A%2F%2Fexodus.desync.com%3A6969","seeders":4,"leechers":0,"uploader":"CODYBOSS1969","files":5,"time":1331780326,"description":"General\nComplete name                            : Once Upon A Time In Anatolia [2011] 720p H264 BRRip AC3 - CODY.mp4\nFormat                                   : MPEG-4\nFormat profile                           : Base Media\nCodec ID                                 : isom\nFile size                                : 2.37 GiB\nDuration                                 : 2h 31mn\nOverall bit rate mode                    : Variable\nOverall bit rate                         : 2 248 Kbps\nEncoded date                             : UTC 2012-03-14 20:00:13\nTagged date                              : UTC 2012-03-14 20:00:13\n\nVideo\nID                                       : 1\nFormat                                   : AVC\nFormat/Info                              : Advanced Video Codec\nFormat profile                           : &lt;a class=&quot;__cf_email__&quot; href=&quot;/cdn-cgi/l/email-protection&quot; data-cfemail=&quot;7139181619313d455f40&quot;&gt;[email&amp;#160;protected]&lt;/a&gt;&lt;script cf-hash='f9e31' type=&quot;text/javascript&quot;&gt;\n/* &lt;![CDATA[ */!function(){try{var t=&quot;currentScript&quot;in document?document.currentScript:function(){for(var t=document.getElementsByTagName(&quot;script&quot;),e=t.length;e--;)if(t[e].getAttribute(&quot;cf-hash&quot;))return t[e]}();if(t&amp;&amp;t.previousSibling){var e,r,n,i,c=t.previousSibling,a=c.getAttribute(&quot;data-cfemail&quot;);if(a){for(e=&quot;&quot;,r=parseInt(a.substr(0,2),16),n=2;a.length-n;n+=2)i=parseInt(a.substr(n,2),16)^r,e+=String.fromCharCode(i);e=document.createTextNode(e),c.parentNode.replaceChild(e,c)}}}catch(u){}}();/* ]]&gt; */&lt;/script&gt;\nFormat settings, CABAC                   : Yes\nFormat settings, ReFrames                : 4 frames\nCodec ID                                 : avc1\nCodec ID/Info                            : Advanced Video Coding\nDuration                                 : 2h 31mn\nBit rate mode                            : Variable\nBit rate                                 : 1 800 Kbps\nMaximum bit rate                         : 20.0 Mbps\nWidth                                    : 1 280 pixels\nHeight                                   : 544 pixels\nDisplay aspect ratio                     : 2.35:1\nFrame rate mode                          : Constant\nFrame rate                               : 25.000 fps\nColor space                              : YUV\nChroma subsampling                       : 4:2:0\nBit depth                                : 8 bits\nScan type                                : Progressive\nBits/(Pixel*Frame)                       : 0.103\nStream size                              : 1.90 GiB (80%)\nWriting library                          : x264 core 119 r2106 07efeb4\nEncoding settings                        : rc=2pass\nTagged date                              : UTC 2012-03-14 20:00:49\nEncoded date                             : UTC 2012-03-14 20:00:45\n\n\nAudio\nID                                       : 2\nFormat                                   : AC-3\nFormat/Info                              : Audio Coding 3\nMode extension                           : CM (complete main)\nCodec ID                                 : ac-3\nDuration                                 : 2h 31mn\nBit rate mode                            : Constant\nBit rate                                 : 448 Kbps\nChannel(s)                               : 6 channels\nChannel positions                        : Front: L C R, Side: L R, LFE\nSampling rate                            : 48.0 KHz\nBit depth                                : 16 bits\nCompression mode                         : Lossy\nStream size                              : 484 MiB (20%)\nTagged date                              : UTC 2012-03-14 20:00:49\nEncoded date                             : UTC 2012-03-14 20:00:45\n\n\n\nIMDB link:                                &lt;a href=&quot; http://www.imdb.com/title/tt1827487/&quot; rel=&quot;nofollow&quot; target=&quot;_NEW&quot;&gt; http://www.imdb.com/title/tt1827487/&lt;/a&gt;\n\n\nAudio language                           : Turkish [original sound]\n\n\nSubtitles included                       : English\n\n\nPlease seed at least 1,5:1 . This way this torrent has a chance to survive !\n\n\nThanks . Enjoy !!!\n","torrent":{"xt":"urn:btih:ac2796166b3a596dd917a8f369d2377c3b1f11ec","amp;dn":"Once+Upon+A+Time+In+Anatolia+%5B2011%5D+720p+BRRip+H264+AC3+-+CODY","amp;tr":["udp%3A%2F%2Ftracker.openbittorrent.com%3A80","udp%3A%2F%2Fopen.demonii.com%3A1337","udp%3A%2F%2Ftracker.coppersurfer.tk%3A6969","udp%3A%2F%2Fexodus.desync.com%3A6969"],"infoHash":"ac2796166b3a596dd917a8f369d2377c3b1f11ec","infoHashBuffer":{"type":"Buffer","data":[172,39,150,22,107,58,89,109,217,23,168,243,105,210,55,124,59,31,17,236]},"announce":[],"urlList":[]}}